<svg width="120" height="10" viewBox="0 0 120 10" fill="none" xmlns="http://www.w3.org/2000/svg">
<path d="M0.0568182 9V0.272727H1.11364V4.15909H5.76705V0.272727H6.82386V9H5.76705V5.09659H1.11364V9H0.0568182ZM11.5476 9.13636C10.9169 9.13636 10.3729 8.99716 9.91548 8.71875C9.46094 8.4375 9.11009 8.04545 8.86293 7.54261C8.61861 7.03693 8.49645 6.44886 8.49645 5.77841C8.49645 5.10795 8.61861 4.51705 8.86293 4.00568C9.11009 3.49148 9.45384 3.09091 9.89418 2.80398C10.3374 2.5142 10.8544 2.36932 11.4453 2.36932C11.7862 2.36932 12.1229 2.42614 12.4553 2.53977C12.7876 2.65341 13.0902 2.83807 13.3629 3.09375C13.6357 3.34659 13.853 3.68182 14.0149 4.09943C14.1768 4.51705 14.2578 5.03125 14.2578 5.64205V6.06818H9.21236V5.19886H13.2351C13.2351 4.82955 13.1612 4.5 13.0135 4.21023C12.8686 3.92045 12.6612 3.69176 12.3913 3.52415C12.1243 3.35653 11.8089 3.27273 11.4453 3.27273C11.0447 3.27273 10.6982 3.37216 10.4055 3.57102C10.1158 3.76705 9.89276 4.02273 9.73651 4.33807C9.58026 4.65341 9.50213 4.99148 9.50213 5.35227V5.93182C9.50213 6.42614 9.58736 6.84517 9.75781 7.18892C9.93111 7.52983 10.1712 7.78977 10.478 7.96875C10.7848 8.14489 11.1413 8.23295 11.5476 8.23295C11.8118 8.23295 12.0504 8.19602 12.2635 8.12216C12.4794 8.04545 12.6655 7.93182 12.8217 7.78125C12.978 7.62784 13.0987 7.4375 13.1839 7.21023L14.1555 7.48295C14.0533 7.8125 13.8814 8.10227 13.6399 8.35227C13.3984 8.59943 13.1001 8.79261 12.745 8.93182C12.3899 9.06818 11.9908 9.13636 11.5476 9.13636ZM15.7876 9V2.45455H18.4638C19.1683 2.45455 19.728 2.61364 20.1428 2.93182C20.5575 3.25 20.7649 3.67045 20.7649 4.19318C20.7649 4.59091 20.647 4.89915 20.4112 5.1179C20.1754 5.33381 19.8729 5.48011 19.5036 5.55682C19.745 5.59091 19.9794 5.67614 20.2067 5.8125C20.4368 5.94886 20.6271 6.13636 20.7777 6.375C20.9283 6.6108 21.0036 6.90057 21.0036 7.24432C21.0036 7.57955 20.9183 7.87926 20.7479 8.14347C20.5774 8.40767 20.3331 8.61648 20.0149 8.76989C19.6967 8.9233 19.3161 9 18.8729 9H15.7876ZM16.7422 8.07955H18.8729C19.2195 8.07955 19.4908 7.99716 19.6868 7.83239C19.8828 7.66761 19.9808 7.44318 19.9808 7.15909C19.9808 6.82102 19.8828 6.5554 19.6868 6.36222C19.4908 6.16619 19.2195 6.06818 18.8729 6.06818H16.7422V8.07955ZM16.7422 5.19886H18.4638C18.7337 5.19886 18.9652 5.16193 19.1584 5.08807C19.3516 5.01136 19.4993 4.90341 19.6016 4.7642C19.7067 4.62216 19.7592 4.45455 19.7592 4.26136C19.7592 3.9858 19.6442 3.76989 19.4141 3.61364C19.1839 3.45455 18.8672 3.375 18.4638 3.375H16.7422V5.19886ZM24.4521 9.15341C24.0373 9.15341 23.6609 9.07528 23.3228 8.91903C22.9847 8.75994 22.7163 8.53125 22.5174 8.23295C22.3185 7.93182 22.2191 7.56818 22.2191 7.14205C22.2191 6.76705 22.293 6.46307 22.4407 6.23011C22.5884 5.99432 22.7859 5.80966 23.033 5.67614C23.2802 5.54261 23.5529 5.44318 23.8512 5.37784C24.1523 5.30966 24.4549 5.25568 24.7589 5.21591C25.1566 5.16477 25.479 5.12642 25.7262 5.10085C25.9762 5.07244 26.158 5.02557 26.2717 4.96023C26.3881 4.89489 26.4464 4.78125 26.4464 4.61932V4.58523C26.4464 4.16477 26.3313 3.83807 26.1012 3.60511C25.8739 3.37216 25.5288 3.25568 25.0657 3.25568C24.5856 3.25568 24.2092 3.3608 23.9364 3.57102C23.6637 3.78125 23.4719 4.00568 23.3612 4.24432L22.4066 3.90341C22.5771 3.50568 22.8043 3.19602 23.0884 2.97443C23.3754 2.75 23.6879 2.59375 24.0259 2.50568C24.3668 2.41477 24.7021 2.36932 25.0316 2.36932C25.2418 2.36932 25.4833 2.39489 25.756 2.44602C26.0316 2.49432 26.2972 2.59517 26.5529 2.74858C26.8114 2.90199 27.0259 3.13352 27.1964 3.44318C27.3668 3.75284 27.4521 4.16761 27.4521 4.6875V9H26.4464V8.11364H26.3952C26.3271 8.25568 26.2134 8.40767 26.0543 8.5696C25.8952 8.73153 25.6836 8.86932 25.4194 8.98295C25.1552 9.09659 24.8327 9.15341 24.4521 9.15341ZM24.6055 8.25C25.0032 8.25 25.3384 8.17188 25.6112 8.01562C25.8867 7.85938 26.0941 7.65767 26.2333 7.41051C26.3754 7.16335 26.4464 6.90341 26.4464 6.63068V5.71023C26.4038 5.76136 26.31 5.80824 26.1651 5.85085C26.0231 5.89062 25.8583 5.92614 25.6708 5.95739C25.4862 5.9858 25.3058 6.01136 25.1296 6.03409C24.9563 6.05398 24.8157 6.07102 24.7077 6.08523C24.4464 6.11932 24.2021 6.17472 23.9748 6.25142C23.7504 6.32528 23.5685 6.4375 23.4293 6.58807C23.293 6.7358 23.2248 6.9375 23.2248 7.19318C23.2248 7.54261 23.354 7.80682 23.6126 7.9858C23.8739 8.16193 24.2049 8.25 24.6055 8.25ZM28.7081 9V8.0625H28.9467C29.1428 8.0625 29.3061 8.02415 29.4368 7.94744C29.5675 7.8679 29.6726 7.73011 29.7521 7.53409C29.8345 7.33523 29.897 7.05966 29.9396 6.70739C29.9851 6.35227 30.0178 5.90057 30.0376 5.35227L30.157 2.45455H34.5206V9H33.5149V3.39205H31.1115L31.0092 5.72727C30.9865 6.2642 30.9382 6.73722 30.8643 7.14631C30.7933 7.55256 30.6839 7.89347 30.5362 8.16903C30.3913 8.4446 30.1982 8.65199 29.9567 8.79119C29.7152 8.9304 29.4126 9 29.049 9H28.7081ZM40.3033 9V3.375H38.5646C38.1726 3.375 37.8643 3.46591 37.6399 3.64773C37.4155 3.82955 37.3033 4.07955 37.3033 4.39773C37.3033 4.71023 37.4041 4.95597 37.6058 5.13494C37.8104 5.31392 38.0902 5.40341 38.4453 5.40341H40.5589V6.34091H38.4453C38.0021 6.34091 37.62 6.26278 37.299 6.10653C36.978 5.95028 36.7308 5.72727 36.5575 5.4375C36.3842 5.14489 36.2976 4.7983 36.2976 4.39773C36.2976 3.99432 36.3885 3.64773 36.5703 3.35795C36.7521 3.06818 37.0121 2.84517 37.3501 2.68892C37.6911 2.53267 38.0959 2.45455 38.5646 2.45455H41.2578V9H40.3033ZM35.9396 9L37.7976 5.74432H38.8885L37.0305 9H35.9396ZM43.104 2.45455H44.1097V8.0625H46.5813V2.45455H47.587V8.0625H50.0586V2.45455H51.0643V9H43.104V2.45455ZM52.9009 9V2.45455H53.9066V5.30114H54.5714L56.9237 2.45455H58.2191L55.5771 5.60795L58.2532 9H56.9577L54.81 6.23864H53.9066V9H52.9009ZM60.3519 7.51705L63.5053 2.45455H64.6644V9H63.6587V3.9375L60.5224 9H59.3462V2.45455H60.3519V7.51705ZM70.8871 5.26705V6.20455H67.2734V5.26705H70.8871ZM67.5121 2.45455V9H66.5064V2.45455H67.5121ZM71.6541 2.45455V9H70.6484V2.45455H71.6541ZM78.9453 4.63636C78.9453 4.17045 79.0589 3.74574 79.2862 3.36222C79.5135 2.97869 79.8189 2.6733 80.2024 2.44602C80.5859 2.21875 81.0107 2.10511 81.4766 2.10511C81.88 2.10511 82.2521 2.19176 82.593 2.36506C82.9368 2.53835 83.2209 2.77557 83.4453 3.0767C83.6697 3.375 83.8089 3.71307 83.8629 4.09091H82.8317C82.7749 3.7983 82.6172 3.55966 82.3587 3.375C82.1001 3.1875 81.8061 3.09375 81.4766 3.09375C81.1925 3.09375 80.9339 3.16335 80.701 3.30256C80.468 3.44176 80.282 3.62784 80.1428 3.8608C80.0036 4.09375 79.9339 4.35227 79.9339 4.63636C79.9339 4.92045 80.0036 5.17898 80.1428 5.41193C80.282 5.64489 80.468 5.83097 80.701 5.97017C80.9339 6.10937 81.1925 6.17898 81.4766 6.17898C81.8061 6.17898 82.0845 6.08665 82.3118 5.90199C82.5419 5.71449 82.6868 5.47443 82.7464 5.18182H83.7777C83.7237 5.55966 83.5916 5.89915 83.3814 6.20028C83.1712 6.49858 82.9013 6.73437 82.5717 6.90767C82.245 7.08097 81.88 7.16761 81.4766 7.16761C81.0107 7.16761 80.5859 7.05398 80.2024 6.8267C79.8189 6.59943 79.5135 6.29403 79.2862 5.91051C79.0589 5.52699 78.9453 5.10227 78.9453 4.63636ZM81.4339 9.13636C80.8146 9.13636 80.2322 9.01989 79.6868 8.78693C79.1442 8.55398 78.6655 8.23153 78.2507 7.8196C77.8388 7.40483 77.5149 6.92614 77.2791 6.38352C77.0462 5.84091 76.9311 5.25852 76.9339 4.63636C76.9368 4.0142 77.0547 3.43182 77.2876 2.8892C77.5234 2.34659 77.8473 1.86932 78.2592 1.45739C78.6712 1.04261 79.1484 0.71875 79.6911 0.485795C80.2337 0.252841 80.8146 0.136364 81.4339 0.136364C82.0561 0.136364 82.6385 0.252841 83.1811 0.485795C83.7266 0.71875 84.2038 1.04261 84.6129 1.45739C85.0249 1.86932 85.3473 2.34659 85.5803 2.8892C85.8132 3.43182 85.9311 4.0142 85.9339 4.63636C85.9368 5.25852 85.8217 5.84091 85.5888 6.38352C85.3558 6.92614 85.0334 7.40483 84.6214 7.8196C84.2095 8.23153 83.7308 8.55398 83.1854 8.78693C82.6399 9.01989 82.0561 9.13636 81.4339 9.13636ZM81.4339 8.14773C81.9197 8.14773 82.3757 8.05682 82.8018 7.875C83.228 7.69318 83.6016 7.44176 83.9226 7.12074C84.2436 6.79972 84.495 6.42756 84.6768 6.00426C84.8587 5.57812 84.9482 5.12358 84.9453 4.64062C84.9425 4.15483 84.8501 3.69886 84.6683 3.27273C84.4865 2.84659 84.2351 2.47301 83.9141 2.15199C83.593 1.83097 83.2209 1.57955 82.7976 1.39773C82.3743 1.21591 81.9197 1.125 81.4339 1.125C80.951 1.125 80.4979 1.21591 80.0746 1.39773C79.6513 1.57955 79.2791 1.83239 78.9581 2.15625C78.6371 2.47727 78.3842 2.85085 78.1996 3.27699C78.0178 3.70028 77.9254 4.15483 77.9226 4.64062C77.9197 5.12074 78.0092 5.57386 78.1911 6C78.3729 6.4233 78.6243 6.79545 78.9453 7.11648C79.2692 7.4375 79.6428 7.69034 80.0661 7.875C80.4922 8.05682 80.9482 8.14773 81.4339 8.14773ZM91.2042 9V8.23295L94.0849 5.07955C94.4229 4.71023 94.7013 4.3892 94.9201 4.11648C95.1388 3.84091 95.3008 3.58239 95.4059 3.34091C95.5138 3.09659 95.5678 2.84091 95.5678 2.57386C95.5678 2.26705 95.494 2.00142 95.3462 1.77699C95.2013 1.55256 95.0025 1.37926 94.7496 1.2571C94.4968 1.13494 94.2127 1.07386 93.8974 1.07386C93.5621 1.07386 93.2695 1.14347 93.0195 1.28267C92.7724 1.41903 92.5806 1.6108 92.4442 1.85795C92.3107 2.10511 92.244 2.39489 92.244 2.72727H91.2383C91.2383 2.21591 91.3562 1.76705 91.592 1.38068C91.8278 0.994318 92.1488 0.693181 92.555 0.477272C92.9641 0.261363 93.4229 0.153409 93.9315 0.153409C94.4428 0.153409 94.896 0.261363 95.2908 0.477272C95.6857 0.693181 95.9954 0.984375 96.2198 1.35085C96.4442 1.71733 96.5565 2.125 96.5565 2.57386C96.5565 2.89489 96.4982 3.20881 96.3817 3.51562C96.2681 3.8196 96.0692 4.15909 95.7852 4.53409C95.5039 4.90625 95.1133 5.3608 94.6133 5.89773L92.6531 7.99432V8.0625H96.7099V9H91.2042ZM101.316 9.11932C100.674 9.11932 100.127 8.9446 99.6758 8.59517C99.2241 8.2429 98.8789 7.73295 98.6403 7.06534C98.4016 6.39489 98.2823 5.58523 98.2823 4.63636C98.2823 3.69318 98.4016 2.88778 98.6403 2.22017C98.8817 1.54972 99.2283 1.03835 99.68 0.686079C100.135 0.330966 100.68 0.153409 101.316 0.153409C101.953 0.153409 102.497 0.330966 102.949 0.686079C103.403 1.03835 103.75 1.54972 103.988 2.22017C104.23 2.88778 104.35 3.69318 104.35 4.63636C104.35 5.58523 104.231 6.39489 103.993 7.06534C103.754 7.73295 103.409 8.2429 102.957 8.59517C102.505 8.9446 101.958 9.11932 101.316 9.11932ZM101.316 8.18182C101.953 8.18182 102.447 7.875 102.799 7.26136C103.152 6.64773 103.328 5.77273 103.328 4.63636C103.328 3.88068 103.247 3.23722 103.085 2.70597C102.926 2.17472 102.696 1.76989 102.395 1.49148C102.096 1.21307 101.737 1.07386 101.316 1.07386C100.686 1.07386 100.193 1.38494 99.8377 2.0071C99.4826 2.62642 99.305 3.50284 99.305 4.63636C99.305 5.39205 99.3846 6.03409 99.5437 6.5625C99.7028 7.09091 99.9315 7.4929 100.23 7.76847C100.531 8.04403 100.893 8.18182 101.316 8.18182ZM105.97 9V8.23295L108.85 5.07955C109.189 4.71023 109.467 4.3892 109.686 4.11648C109.904 3.84091 110.066 3.58239 110.172 3.34091C110.279 3.09659 110.333 2.84091 110.333 2.57386C110.333 2.26705 110.26 2.00142 110.112 1.77699C109.967 1.55256 109.768 1.37926 109.515 1.2571C109.262 1.13494 108.978 1.07386 108.663 1.07386C108.328 1.07386 108.035 1.14347 107.785 1.28267C107.538 1.41903 107.346 1.6108 107.21 1.85795C107.076 2.10511 107.01 2.39489 107.01 2.72727H106.004C106.004 2.21591 106.122 1.76705 106.358 1.38068C106.593 0.994318 106.914 0.693181 107.321 0.477272C107.73 0.261363 108.189 0.153409 108.697 0.153409C109.208 0.153409 109.662 0.261363 110.056 0.477272C110.451 0.693181 110.761 0.984375 110.985 1.35085C111.21 1.71733 111.322 2.125 111.322 2.57386C111.322 2.89489 111.264 3.20881 111.147 3.51562C111.034 3.8196 110.835 4.15909 110.551 4.53409C110.27 4.90625 109.879 5.3608 109.379 5.89773L107.419 7.99432V8.0625H111.475V9H105.97ZM112.843 7.21023V6.34091L116.679 0.272727H117.309V1.61932H116.883L113.985 6.20455V6.27273H119.15V7.21023H112.843ZM116.951 9V6.94602V6.54119V0.272727H117.957V9H116.951Z" fill="black"/>
</svg>
