<svg width="50" height="50" viewBox="0 0 50 50" fill="none" xmlns="http://www.w3.org/2000/svg">
<path d="M44.8 38.2937H40.0458C38.2479 38.2937 37.7062 36.8375 34.4833 33.6125C31.6667 30.8979 30.4771 30.5604 29.7646 30.5604C28.7792 30.5604 28.5104 30.8312 28.5104 32.1875V36.4625C28.5104 37.6187 28.1354 38.2958 25.1146 38.2958C22.1839 38.0989 19.342 37.2086 16.8229 35.6982C14.3037 34.1878 12.1794 32.1005 10.625 29.6083C6.93544 25.0138 4.36752 19.6226 3.125 13.8625C3.125 13.15 3.39583 12.5041 4.75417 12.5041H9.50417C10.725 12.5041 11.1646 13.0479 11.6438 14.3041C13.95 21.0916 17.8854 26.9958 19.4833 26.9958C20.0958 26.9958 20.3625 26.725 20.3625 25.1979V18.2062C20.1604 15.0166 18.4667 14.7479 18.4667 13.5937C18.4881 13.2892 18.6274 13.0051 18.8549 12.8016C19.0825 12.5982 19.3804 12.4915 19.6854 12.5041H27.1521C28.1729 12.5041 28.5104 13.0125 28.5104 14.2333V23.6708C28.5104 24.6896 28.9479 25.0271 29.2562 25.0271C29.8687 25.0271 30.3396 24.6896 31.4625 23.5687C33.8685 20.6326 35.8349 17.3623 37.3 13.8604C37.4493 13.4395 37.7324 13.0791 38.1061 12.8345C38.4797 12.5899 38.9233 12.4746 39.3687 12.5062H44.1208C45.5458 12.5062 45.8479 13.2187 45.5458 14.2354C43.817 18.1068 41.6784 21.782 39.1667 25.1979C38.6542 25.9791 38.45 26.3854 39.1667 27.3021C39.6375 28.0146 41.3042 29.4062 42.4229 30.7291C44.0521 32.3541 45.4042 34.2333 46.4271 36.2916C46.8354 37.6166 46.1562 38.2937 44.8 38.2937Z" fill="#6C88E4"/>
</svg>
